solid STL generated by MeshLab
  facet normal  2.102149e-02  2.701403e-02 -9.994140e-01
    outer loop
      vertex  -9.663852e+00  8.312805e+00  1.307662e+00
      vertex   1.272724e+01  5.424379e+00  1.700558e+00
      vertex   5.478556e+00 -9.046745e+00  1.156938e+00
    endloop
  endfacet
  facet normal  5.811217e-02 -8.153886e-01  5.759900e-01
    outer loop
      vertex   9.676444e+00 -2.574852e+01  3.832662e+01
      vertex   2.194816e+01 -1.995557e+01  4.528918e+01
      vertex   1.149389e+01 -1.544255e+01  5.273270e+01
    endloop
  endfacet
  facet normal  9.008596e-01 -2.286520e-01  3.690125e-01
    outer loop
      vertex   2.828379e+01 -1.515347e+01  4.323116e+01
      vertex   3.414808e+01 -1.421190e+01  2.949827e+01
      vertex   3.382217e+01 -5.476085e+00  3.570688e+01
    endloop
  endfacet
  facet normal -3.153301e-01 -6.233328e-01 -7.155580e-01
    outer loop
      vertex  -1.906897e+01 -1.755426e+01  1.342644e+01
      vertex  -1.868685e+01 -2.401204e+01  1.888352e+01
      vertex  -3.355696e+01 -2.068542e+01  2.253857e+01
    endloop
  endfacet
  facet normal -6.153697e-01  1.020603e-01 -7.816033e-01
    outer loop
      vertex  -3.331681e+01  3.233551e+00  6.246040e+01
      vertex  -3.048097e+01  2.050700e+01  6.248323e+01
      vertex  -2.878211e+01  3.721510e+00  5.895387e+01
    endloop
  endfacet
  facet normal -2.898464e-01  5.404154e-01 -7.898989e-01
    outer loop
      vertex  -2.195737e+01 -3.857195e+00  1.063852e+01
      vertex  -3.155836e+01  2.860687e-01  1.699616e+01
      vertex  -1.960308e+01  5.969425e+00  1.649759e+01
    endloop
  endfacet
  facet normal -5.403390e-01  8.343378e-01  1.091529e-01
    outer loop
      vertex   6.474968e-01  1.212433e+01  8.385185e+01
      vertex   8.492762e-01  1.322664e+01  7.642496e+01
      vertex  -1.569586e+01  2.800435e+00  7.421700e+01
    endloop
  endfacet
  facet normal  5.545557e-01  8.273349e-01  8.935788e-02
    outer loop
      vertex   1.532962e+01  1.652979e+01  3.240981e+01
      vertex   3.168487e+01  6.001408e+00  2.838784e+01
      vertex   2.748337e+01  1.024034e+01  1.521546e+01
    endloop
  endfacet
  facet normal -4.059559e-01 -6.919813e-01  5.969605e-01
    outer loop
      vertex  -1.272742e+01 -2.272281e+01  5.176530e+00
      vertex  -5.398789e+00 -3.140261e+01  9.887289e-02
      vertex  -5.590755e+00 -2.246310e+01  1.033078e+01
    endloop
  endfacet
  facet normal  9.515807e-02 -7.552632e-01  6.484770e-01
    outer loop
      vertex   2.062365e+01 -2.661849e+01  3.570699e+01
      vertex   9.676444e+00 -2.574852e+01  3.832662e+01
      vertex   1.614704e+00 -3.194917e+01  3.228788e+01
    endloop
  endfacet
  facet normal  4.146898e-01  2.028419e-01 -8.870668e-01
    outer loop
      vertex  -2.823574e+01  2.894842e+01  6.546310e+01
      vertex  -2.486833e+01  3.494127e+00  6.121679e+01
      vertex  -3.048097e+01  2.050700e+01  6.248323e+01
    endloop
  endfacet
  facet normal  4.090445e-02 -4.333067e-01 -9.003178e-01
    outer loop
      vertex  -3.324776e+01 -2.006206e+01  3.935765e+01
      vertex  -2.943744e+01 -3.149547e+01  4.503346e+01
      vertex  -3.896492e+01 -2.556728e+01  4.174746e+01
    endloop
  endfacet
  facet normal -9.977009e-01 -6.709517e-02 -9.537030e-03
    outer loop
      vertex  -1.868685e+01 -2.401204e+01  1.888352e+01
      vertex  -1.906897e+01 -1.755426e+01  1.342644e+01
      vertex  -1.885803e+01 -1.996212e+01  8.299344e+00
    endloop
  endfacet
  facet normal  4.842642e-01 -2.842963e-01  8.274441e-01
    outer loop
      vertex   2.194816e+01 -1.995557e+01  4.528918e+01
      vertex   2.828379e+01 -1.515347e+01  4.323116e+01
      vertex   2.470569e+01 -4.624816e+00  4.894273e+01
    endloop
  endfacet
  facet normal -6.390513e-01 -7.629254e-01  9.776610e-02
    outer loop
      vertex  -8.073259e+00 -2.441493e+01  2.721232e+01
      vertex  -5.076427e+00 -2.618288e+01  3.300487e+01
      vertex  -9.661170e+00 -2.113292e+01  4.244432e+01
    endloop
  endfacet
  facet normal -9.620273e-01  2.103947e-01 -1.738897e-01
    outer loop
      vertex  -2.823574e+01  2.894842e+01  6.546310e+01
      vertex  -3.331681e+01  3.233551e+00  6.246040e+01
      vertex  -3.030338e+01  2.878583e+01  7.670541e+01
    endloop
  endfacet
  facet normal -5.099117e-01  4.540832e-01  7.306152e-01
    outer loop
      vertex  -2.642964e+01 -1.854232e+01  4.711690e+00
      vertex  -1.934727e+01 -1.102634e+01  4.983383e+00
      vertex  -2.637913e+01 -1.094329e+01  2.408369e-02
    endloop
  endfacet
  facet normal  6.322001e-01 -6.605029e-01  4.050421e-01
    outer loop
      vertex   2.194816e+01 -1.995557e+01  4.528918e+01
      vertex   2.816495e+01 -2.397692e+01  2.902823e+01
      vertex   2.828379e+01 -1.515347e+01  4.323116e+01
    endloop
  endfacet
  facet normal  2.528124e-01  9.378279e-01 -2.378332e-01
    outer loop
      vertex   1.315691e+01  1.257752e+01  4.746971e-01
      vertex  -7.743591e-01  2.008554e+01  1.527177e+01
      vertex   8.474085e+00  1.987271e+01  2.426347e+01
    endloop
  endfacet
  facet normal -7.947387e-01 -4.800694e-01  3.713810e-01
    outer loop
      vertex  -3.324776e+01 -2.006206e+01  3.935765e+01
      vertex  -3.895412e+01 -9.850882e+00  4.034588e+01
      vertex  -4.006943e+01 -1.472546e+01  3.165799e+01
    endloop
  endfacet
  facet normal -3.598287e-01  3.072230e-01  8.809866e-01
    outer loop
      vertex  -2.642964e+01 -1.854232e+01  4.711690e+00
      vertex  -1.885803e+01 -1.996212e+01  8.299344e+00
      vertex  -1.934727e+01 -1.102634e+01  4.983383e+00
    endloop
  endfacet
  facet normal -1.392963e-02  4.714668e-01  8.817738e-01
    outer loop
      vertex  -3.188554e+00  1.307631e+01  3.396378e+01
      vertex   1.601109e+01  1.183185e+01  3.493247e+01
      vertex   1.532962e+01  1.652979e+01  3.240981e+01
    endloop
  endfacet
  facet normal  1.732970e-01 -7.056470e-01  6.870447e-01
    outer loop
      vertex   3.520681e+01 -1.203077e+01  2.035990e+01
      vertex   3.647998e+01 -2.013080e+01  1.171942e+01
      vertex   4.324964e+01 -1.156545e+01  1.880913e+01
    endloop
  endfacet
  facet normal  2.369291e-02 -9.410217e-03 -9.996750e-01
    outer loop
      vertex  -2.637913e+01 -1.094329e+01  2.408369e-02
      vertex  -1.655444e+01  5.753677e+00  9.976182e-02
      vertex  -6.847394e+00 -8.041526e+00  4.596827e-01
    endloop
  endfacet
  facet normal  1.715959e-01  6.472905e-01 -7.426775e-01
    outer loop
      vertex   2.679165e+00  5.532737e+00  7.014203e+01
      vertex  -1.925105e+01 -1.668812e+00  5.879844e+01
      vertex   8.492762e-01  1.322664e+01  7.642496e+01
    endloop
  endfacet
  facet normal  4.308550e-02  9.946560e-01 -9.382530e-02
    outer loop
      vertex  -1.744324e+01  4.789298e+00  4.978710e+00
      vertex  -1.960308e+01  5.969425e+00  1.649759e+01
      vertex  -8.453713e+00  4.860176e+00  9.858179e+00
    endloop
  endfacet
  facet normal -4.760963e-01 -8.618999e-01 -1.745305e-01
    outer loop
      vertex  -2.943744e+01 -3.149547e+01  4.503346e+01
      vertex  -3.982034e+01 -2.728858e+01  5.258138e+01
      vertex  -3.896492e+01 -2.556728e+01  4.174746e+01
    endloop
  endfacet
  facet normal -9.554014e-02  1.361979e-02 -9.953324e-01
    outer loop
      vertex   5.478556e+00 -9.046745e+00  1.156938e+00
      vertex   1.853438e+01  9.445515e+00  1.567748e-01
      vertex   1.979076e+01  1.028287e+00 -7.900140e-02
    endloop
  endfacet
  facet normal  4.973717e-01  2.264269e-01 -8.374678e-01
    outer loop
      vertex  -2.878211e+01  3.721510e+00  5.895387e+01
      vertex  -3.048097e+01  2.050700e+01  6.248323e+01
      vertex  -2.486833e+01  3.494127e+00  6.121679e+01
    endloop
  endfacet
  facet normal  8.529416e-01 -5.215006e-01 -2.297061e-02
    outer loop
      vertex   3.414808e+01 -1.421190e+01  2.949827e+01
      vertex   2.816495e+01 -2.397692e+01  2.902823e+01
      vertex   3.056117e+01 -1.926489e+01  1.102739e+01
    endloop
  endfacet
  facet normal  4.555282e-01  7.935176e-01  4.035146e-01
    outer loop
      vertex  -1.925105e+01 -1.668812e+00  5.879844e+01
      vertex  -1.787969e+01  1.267840e+00  5.147533e+01
      vertex  -2.495092e+01 -1.307167e+00  6.452185e+01
    endloop
  endfacet
  facet normal -6.092696e-01 -4.561006e-01  6.486624e-01
    outer loop
      vertex  -3.329163e+01 -1.642740e+01  6.635053e+01
      vertex  -4.147350e+01 -9.188184e+00  6.375573e+01
      vertex  -3.982034e+01 -2.728858e+01  5.258138e+01
    endloop
  endfacet
  facet normal -9.354511e-01  2.178360e-01  2.783501e-01
    outer loop
      vertex  -3.895412e+01 -9.850882e+00  4.034588e+01
      vertex  -3.659505e+01 -8.531185e-01  4.123238e+01
      vertex  -4.022324e+01 -4.121064e+00  3.159660e+01
    endloop
  endfacet
  facet normal  4.480895e-01  8.939299e-01 -1.025689e-02
    outer loop
      vertex   2.748337e+01  1.024034e+01  1.521546e+01
      vertex   8.474085e+00  1.987271e+01  2.426347e+01
      vertex   1.532962e+01  1.652979e+01  3.240981e+01
    endloop
  endfacet
  facet normal -4.048123e-01  8.457646e-01 -3.475762e-01
    outer loop
      vertex  -3.726024e+01  1.890516e+00  4.868325e+01
      vertex  -2.840461e+01  4.528707e+00  4.478891e+01
      vertex  -3.659505e+01 -8.531185e-01  4.123238e+01
    endloop
  endfacet
  facet normal -1.475054e-01  7.774888e-01  6.113538e-01
    outer loop
      vertex  -2.840461e+01  4.528707e+00  4.478891e+01
      vertex  -1.787969e+01  1.267840e+00  5.147533e+01
      vertex  -1.492475e+01  1.001233e+01  4.106749e+01
    endloop
  endfacet
  facet normal  9.936313e-01 -3.825645e-02  1.059867e-01
    outer loop
      vertex   3.520681e+01 -1.203077e+01  2.035990e+01
      vertex   3.382217e+01 -5.476085e+00  3.570688e+01
      vertex   3.414808e+01 -1.421190e+01  2.949827e+01
    endloop
  endfacet
  facet normal -9.162892e-01  3.429139e-01 -2.069399e-01
    outer loop
      vertex  -2.195737e+01 -3.857195e+00  1.063852e+01
      vertex  -1.960308e+01  5.969425e+00  1.649759e+01
      vertex  -1.744324e+01  4.789298e+00  4.978710e+00
    endloop
  endfacet
  facet normal  6.797439e-01 -7.289612e-01 -8.101738e-02
    outer loop
      vertex  -5.197012e+00  3.289616e+00  8.052962e+01
      vertex  -1.871982e+01 -7.463364e+00  6.382280e+01
      vertex   1.467484e+00  1.000202e+01  7.604996e+01
    endloop
  endfacet
  facet normal -9.192830e-02  8.440178e-03 -9.957299e-01
    outer loop
      vertex   5.478556e+00 -9.046745e+00  1.156938e+00
      vertex   1.979076e+01  1.028287e+00 -7.900140e-02
      vertex   1.513013e+01 -1.924035e+01  1.794754e-01
    endloop
  endfacet
  facet normal  8.872340e-01  1.752079e-01 -4.267527e-01
    outer loop
      vertex   4.205715e+01 -5.566546e-01  1.534501e+01
      vertex   3.975219e+01 -1.206259e+01  5.829020e+00
      vertex   3.748131e+01  3.814830e-01  6.216832e+00
    endloop
  endfacet
  facet normal -3.418829e-01 -3.651752e-01  8.658887e-01
    outer loop
      vertex  -9.661170e+00 -2.113292e+01  4.244432e+01
      vertex   2.681111e+00 -2.095138e+01  4.739404e+01
      vertex  -6.671077e+00 -6.133933e+00  4.995050e+01
    endloop
  endfacet
  facet normal -1.636921e-01 -2.467131e-02  9.862030e-01
    outer loop
      vertex   1.248666e+01 -1.134105e+00  5.325542e+01
      vertex  -6.671077e+00 -6.133933e+00  4.995050e+01
      vertex   1.149389e+01 -1.544255e+01  5.273270e+01
    endloop
  endfacet
  facet normal -9.440860e-01  3.105973e-01 -1.105933e-01
    outer loop
      vertex  -1.655444e+01  5.753677e+00  9.976182e-02
      vertex  -1.744324e+01  4.789298e+00  4.978710e+00
      vertex  -1.301308e+01  1.652770e+01  1.272354e-01
    endloop
  endfacet
  facet normal  8.223446e-01 -2.880022e-02  5.682604e-01
    outer loop
      vertex   3.382217e+01 -5.476085e+00  3.570688e+01
      vertex   2.470569e+01 -4.624816e+00  4.894273e+01
      vertex   2.828379e+01 -1.515347e+01  4.323116e+01
    endloop
  endfacet
  facet normal -6.433886e-01 -7.644855e-01  4.016196e-02
    outer loop
      vertex  -3.324776e+01 -2.006206e+01  3.935765e+01
      vertex  -4.006943e+01 -1.472546e+01  3.165799e+01
      vertex  -3.355696e+01 -2.068542e+01  2.253857e+01
    endloop
  endfacet
  facet normal -4.918062e-01 -2.411705e-01  8.366382e-01
    outer loop
      vertex  -1.569586e+01  2.800435e+00  7.421700e+01
      vertex  -2.396455e+01 -6.166103e+00  6.677166e+01
      vertex  -5.197012e+00  3.289616e+00  8.052962e+01
    endloop
  endfacet
  facet normal -1.837716e-01 -7.304962e-01  6.577259e-01
    outer loop
      vertex   3.520681e+01 -1.203077e+01  2.035990e+01
      vertex   3.056117e+01 -1.926489e+01  1.102739e+01
      vertex   3.647998e+01 -2.013080e+01  1.171942e+01
    endloop
  endfacet
  facet normal  1.365452e-02 -7.356879e-01  6.771832e-01
    outer loop
      vertex  -2.611464e+01 -2.694051e+01  8.643759e-01
      vertex  -1.272742e+01 -2.272281e+01  5.176530e+00
      vertex  -1.885803e+01 -1.996212e+01  8.299344e+00
    endloop
  endfacet
  facet normal  9.814239e-01  1.806369e-01  6.463444e-02
    outer loop
      vertex   1.467484e+00  1.000202e+01  7.604996e+01
      vertex   2.679165e+00  5.532737e+00  7.014203e+01
      vertex   8.492762e-01  1.322664e+01  7.642496e+01
    endloop
  endfacet
  facet normal -8.739092e-01 -1.481557e-01  4.629607e-01
    outer loop
      vertex  -2.637913e+01 -1.094329e+01  2.408369e-02
      vertex  -2.195737e+01 -3.857195e+00  1.063852e+01
      vertex  -2.867893e+01  2.918652e+00  1.189352e-01
    endloop
  endfacet
  facet normal  4.105299e-01  3.138656e-01  8.561271e-01
    outer loop
      vertex   4.324964e+01 -1.156545e+01  1.880913e+01
      vertex   4.205715e+01 -5.566546e-01  1.534501e+01
      vertex   3.501534e+01 -2.189112e+00  1.932018e+01
    endloop
  endfacet
  facet normal -2.938109e-01 -8.639227e-01 -4.090388e-01
    outer loop
      vertex  -3.355696e+01 -2.068542e+01  2.253857e+01
      vertex  -1.868685e+01 -2.401204e+01  1.888352e+01
      vertex  -2.588546e+01 -2.680300e+01  2.994897e+01
    endloop
  endfacet
  facet normal -9.819428e-01  1.413065e-01 -1.257802e-01
    outer loop
      vertex  -9.630200e+00  1.270360e+01  2.785441e+01
      vertex  -8.372371e+00  1.700150e+01  2.286320e+01
      vertex  -8.453713e+00  4.860176e+00  9.858179e+00
    endloop
  endfacet
  facet normal  9.773740e-01  5.373840e-02  2.045779e-01
    outer loop
      vertex  -1.925105e+01 -1.668812e+00  5.879844e+01
      vertex  -1.913332e+01 -5.935025e+00  5.935663e+01
      vertex  -1.787969e+01  1.267840e+00  5.147533e+01
    endloop
  endfacet
  facet normal -2.336800e-01 -7.343839e-01  6.372394e-01
    outer loop
      vertex   2.104190e+00 -2.811845e+01  6.635083e+00
      vertex  -5.590755e+00 -2.246310e+01  1.033078e+01
      vertex  -5.398789e+00 -3.140261e+01  9.887289e-02
    endloop
  endfacet
  facet normal  5.650926e-01  7.983707e-01  2.080257e-01
    outer loop
      vertex   2.803950e+01  6.414086e+00  3.670652e+01
      vertex   3.168487e+01  6.001408e+00  2.838784e+01
      vertex   1.532962e+01  1.652979e+01  3.240981e+01
    endloop
  endfacet
  facet normal -7.460316e-01  1.490642e-01  6.490121e-01
    outer loop
      vertex  -2.495092e+01 -1.307167e+00  6.452185e+01
      vertex  -2.396455e+01 -6.166103e+00  6.677166e+01
      vertex  -1.569586e+01  2.800435e+00  7.421700e+01
    endloop
  endfacet
  facet normal  2.366128e-02 -4.696260e-02 -9.986164e-01
    outer loop
      vertex   5.478556e+00 -9.046745e+00  1.156938e+00
      vertex   1.427676e+01 -1.856582e+01  1.813063e+00
      vertex  -5.920956e+00 -2.312436e+01  1.548874e+00
    endloop
  endfacet
  facet normal -7.143431e-02  6.354548e-01  7.688266e-01
    outer loop
      vertex   1.248666e+01 -1.134105e+00  5.325542e+01
      vertex   1.499836e+01  9.169906e+00  4.497227e+01
      vertex  -7.711679e+00  5.440694e+00  4.594449e+01
    endloop
  endfacet
  facet normal  4.829440e-01 -1.004865e-01 -8.698664e-01
    outer loop
      vertex   2.679165e+00  5.532737e+00  7.014203e+01
      vertex  -1.913332e+01 -5.935025e+00  5.935663e+01
      vertex  -1.925105e+01 -1.668812e+00  5.879844e+01
    endloop
  endfacet
  facet normal -9.333023e-01  2.653759e-01 -2.419141e-01
    outer loop
      vertex  -5.385514e+00  1.387646e+01  7.911812e+00
      vertex  -8.453713e+00  4.860176e+00  9.858179e+00
      vertex  -8.372371e+00  1.700150e+01  2.286320e+01
    endloop
  endfacet
  facet normal  7.305820e-01  5.039305e-01 -4.607646e-01
    outer loop
      vertex   2.748337e+01  1.024034e+01  1.521546e+01
      vertex   2.910855e+01  2.967255e+00  9.837867e+00
      vertex   1.853438e+01  9.445515e+00  1.567748e-01
    endloop
  endfacet
  facet normal -1.775046e-01  9.758090e-01  1.276277e-01
    outer loop
      vertex  -9.630200e+00  1.270360e+01  2.785441e+01
      vertex  -1.492475e+01  1.001233e+01  4.106749e+01
      vertex  -3.188554e+00  1.307631e+01  3.396378e+01
    endloop
  endfacet
  facet normal -2.249072e-01  9.628662e-01  1.493496e-01
    outer loop
      vertex  -1.744324e+01  4.789298e+00  4.978710e+00
      vertex  -1.655444e+01  5.753677e+00  9.976182e-02
      vertex  -2.867893e+01  2.918652e+00  1.189352e-01
    endloop
  endfacet
  facet normal  8.043476e-01 -5.076900e-01  3.086678e-01
    outer loop
      vertex   2.828379e+01 -1.515347e+01  4.323116e+01
      vertex   2.816495e+01 -2.397692e+01  2.902823e+01
      vertex   3.414808e+01 -1.421190e+01  2.949827e+01
    endloop
  endfacet
  facet normal -2.328266e-01  5.054923e-01  8.308245e-01
    outer loop
      vertex  -3.131959e+01  2.482761e+01  7.882890e+01
      vertex  -3.030338e+01  2.878583e+01  7.670541e+01
      vertex  -3.506209e+01  2.582377e+01  7.717403e+01
    endloop
  endfacet
  facet normal -6.539840e-01 -6.957934e-01 -2.969452e-01
    outer loop
      vertex   2.104190e+00 -2.811845e+01  6.635083e+00
      vertex  -2.453883e+00 -3.168686e+01  2.503506e+01
      vertex  -5.590755e+00 -2.246310e+01  1.033078e+01
    endloop
  endfacet
  facet normal -8.582409e-01 -2.686699e-01 -4.373089e-01
    outer loop
      vertex  -3.367737e+01 -1.076627e+01  1.668084e+01
      vertex  -3.355696e+01 -2.068542e+01  2.253857e+01
      vertex  -4.006943e+01 -1.472546e+01  3.165799e+01
    endloop
  endfacet
  facet normal -8.036605e-01 -5.660485e-01 -1.836277e-01
    outer loop
      vertex  -8.073259e+00 -2.441493e+01  2.721232e+01
      vertex  -5.590755e+00 -2.246310e+01  1.033078e+01
      vertex  -2.453883e+00 -3.168686e+01  2.503506e+01
    endloop
  endfacet
  facet normal  2.717122e-01 -3.537498e-01 -8.950048e-01
    outer loop
      vertex  -3.324776e+01 -2.006206e+01  3.935765e+01
      vertex  -2.360432e+01 -2.139136e+01  4.281068e+01
      vertex  -2.943744e+01 -3.149547e+01  4.503346e+01
    endloop
  endfacet
  facet normal -2.725575e-01 -9.296772e-01 -2.478159e-01
    outer loop
      vertex   2.104190e+00 -2.811845e+01  6.635083e+00
      vertex   1.104969e+01 -3.143303e+01  9.231057e+00
      vertex  -2.453883e+00 -3.168686e+01  2.503506e+01
    endloop
  endfacet
  facet normal -2.112530e-02  9.812838e-01  1.914048e-01
    outer loop
      vertex  -9.630200e+00  1.270360e+01  2.785441e+01
      vertex  -2.188552e+01  1.114816e+01  3.447612e+01
      vertex  -1.492475e+01  1.001233e+01  4.106749e+01
    endloop
  endfacet
  facet normal  4.553631e-01  7.936450e-01  4.034503e-01
    outer loop
      vertex  -2.495092e+01 -1.307167e+00  6.452185e+01
      vertex  -1.787969e+01  1.267840e+00  5.147533e+01
      vertex  -2.878211e+01  3.721510e+00  5.895387e+01
    endloop
  endfacet
  facet normal -1.503229e-01  9.026627e-01 -4.032409e-01
    outer loop
      vertex  -8.453713e+00  4.860176e+00  9.858179e+00
      vertex  -1.960308e+01  5.969425e+00  1.649759e+01
      vertex  -9.630200e+00  1.270360e+01  2.785441e+01
    endloop
  endfacet
  facet normal  9.423135e-01 -1.453342e-01  3.015346e-01
    outer loop
      vertex  -2.514763e+01  3.321697e+01  7.641551e+01
      vertex  -2.704734e+01  1.132685e+01  7.180157e+01
      vertex  -2.486833e+01  3.494127e+00  6.121679e+01
    endloop
  endfacet
  facet normal -1.584280e-02  7.757019e-03 -9.998444e-01
    outer loop
      vertex  -1.301308e+01  1.652770e+01  1.272354e-01
      vertex  -7.790835e+00  1.052517e+01 -2.081428e-03
      vertex  -1.655444e+01  5.753677e+00  9.976182e-02
    endloop
  endfacet
  facet normal -5.350561e-01  4.871892e-01  6.901895e-01
    outer loop
      vertex  -5.385514e+00  1.387646e+01  7.911812e+00
      vertex  -1.301308e+01  1.652770e+01  1.272354e-01
      vertex  -1.744324e+01  4.789298e+00  4.978710e+00
    endloop
  endfacet
  facet normal  3.617778e-01  9.088776e-01 -2.075053e-01
    outer loop
      vertex   2.748337e+01  1.024034e+01  1.521546e+01
      vertex   1.315691e+01  1.257752e+01  4.746971e-01
      vertex   8.474085e+00  1.987271e+01  2.426347e+01
    endloop
  endfacet
  facet normal  2.718894e-02 -9.231072e-01  3.835803e-01
    outer loop
      vertex  -9.661170e+00 -2.113292e+01  4.244432e+01
      vertex  -2.360432e+01 -2.139136e+01  4.281068e+01
      vertex  -2.588546e+01 -2.680300e+01  2.994897e+01
    endloop
  endfacet
  facet normal -9.931758e-03 -6.330423e-01 -7.740535e-01
    outer loop
      vertex   2.104190e+00 -2.811845e+01  6.635083e+00
      vertex   1.558220e+01 -2.588082e+01  4.632153e+00
      vertex   1.104969e+01 -3.143303e+01  9.231057e+00
    endloop
  endfacet
  facet normal -8.867812e-01  4.565817e-01  7.178024e-02
    outer loop
      vertex  -4.327132e+01 -9.163811e+00  4.473637e+01
      vertex  -4.017471e+01 -5.170662e+00  5.759253e+01
      vertex  -3.726024e+01  1.890516e+00  4.868325e+01
    endloop
  endfacet
  facet normal  9.965618e-01  2.763952e-02  7.810700e-02
    outer loop
      vertex   3.520681e+01 -1.203077e+01  2.035990e+01
      vertex   3.501534e+01 -2.189112e+00  1.932018e+01
      vertex   3.382217e+01 -5.476085e+00  3.570688e+01
    endloop
  endfacet
  facet normal -8.146504e-01  5.248790e-01  2.466711e-01
    outer loop
      vertex  -8.372371e+00  1.700150e+01  2.286320e+01
      vertex  -9.630200e+00  1.270360e+01  2.785441e+01
      vertex  -4.195246e+00  2.028562e+01  2.967036e+01
    endloop
  endfacet
  facet normal -2.004938e-02  1.473338e-02 -9.996904e-01
    outer loop
      vertex   1.859385e+01 -2.495743e+01  2.575050e-02
      vertex   1.513013e+01 -1.924035e+01  1.794754e-01
      vertex   2.370860e+01 -1.492181e+01  7.107558e-02
    endloop
  endfacet
  facet normal  8.806547e-02  4.811291e-01  8.722151e-01
    outer loop
      vertex   2.803950e+01  6.414086e+00  3.670652e+01
      vertex   1.532962e+01  1.652979e+01  3.240981e+01
      vertex   1.601109e+01  1.183185e+01  3.493247e+01
    endloop
  endfacet
  facet normal  5.978056e-01 -6.945366e-01  4.003091e-01
    outer loop
      vertex   2.816495e+01 -2.397692e+01  2.902823e+01
      vertex   2.194816e+01 -1.995557e+01  4.528918e+01
      vertex   2.062365e+01 -2.661849e+01  3.570699e+01
    endloop
  endfacet
  facet normal  1.243583e-01  5.124449e-02  9.909132e-01
    outer loop
      vertex  -3.329163e+01 -1.642740e+01  6.635053e+01
      vertex  -2.495092e+01 -1.307167e+00  6.452185e+01
      vertex  -3.277030e+01 -7.828739e-01  6.547606e+01
    endloop
  endfacet
  facet normal -7.730107e-01  3.102795e-01  5.533362e-01
    outer loop
      vertex  -4.017471e+01 -5.170662e+00  5.759253e+01
      vertex  -3.277030e+01 -7.828739e-01  6.547606e+01
      vertex  -3.331681e+01  3.233551e+00  6.246040e+01
    endloop
  endfacet
  facet normal  2.888079e-01 -5.129788e-02 -9.560118e-01
    outer loop
      vertex  -5.920956e+00 -2.312436e+01  1.548874e+00
      vertex  -1.146451e+01 -2.452185e+01 -5.082738e-02
      vertex  -6.847394e+00 -8.041526e+00  4.596827e-01
    endloop
  endfacet
  facet normal  1.795144e-01 -8.979164e-01  4.018964e-01
    outer loop
      vertex   1.614704e+00 -3.194917e+01  3.228788e+01
      vertex   1.082913e+01 -3.353133e+01  2.463723e+01
      vertex   2.062365e+01 -2.661849e+01  3.570699e+01
    endloop
  endfacet
  facet normal -3.148878e-01 -3.508965e-01  8.818828e-01
    outer loop
      vertex  -6.671077e+00 -6.133933e+00  4.995050e+01
      vertex   2.681111e+00 -2.095138e+01  4.739404e+01
      vertex   1.149389e+01 -1.544255e+01  5.273270e+01
    endloop
  endfacet
  facet normal -5.349911e-02 -5.326205e-02 -9.971464e-01
    outer loop
      vertex  -1.146451e+01 -2.452185e+01 -5.082738e-02
      vertex  -2.611464e+01 -2.694051e+01  8.643759e-01
      vertex  -2.637913e+01 -1.094329e+01  2.408369e-02
    endloop
  endfacet
  facet normal -1.900217e-01  8.684735e-01 -4.578707e-01
    outer loop
      vertex   1.427676e+01 -1.856582e+01  1.813063e+00
      vertex   1.513013e+01 -1.924035e+01  1.794754e-01
      vertex  -5.920956e+00 -2.312436e+01  1.548874e+00
    endloop
  endfacet
  facet normal -6.463783e-01 -7.619615e-01  4.012337e-02
    outer loop
      vertex  -3.355696e+01 -2.068542e+01  2.253857e+01
      vertex  -2.588546e+01 -2.680300e+01  2.994897e+01
      vertex  -3.324776e+01 -2.006206e+01  3.935765e+01
    endloop
  endfacet
  facet normal -9.360339e-01 -9.195699e-02  3.396828e-01
    outer loop
      vertex  -4.017471e+01 -5.170662e+00  5.759253e+01
      vertex  -4.255151e+01 -1.929852e+01  4.721838e+01
      vertex  -3.982034e+01 -2.728858e+01  5.258138e+01
    endloop
  endfacet
  facet normal  2.682489e-01 -7.410123e-01  6.155837e-01
    outer loop
      vertex   1.467484e+00  1.000202e+01  7.604996e+01
      vertex  -1.871982e+01 -7.463364e+00  6.382280e+01
      vertex   2.679165e+00  5.532737e+00  7.014203e+01
    endloop
  endfacet
  facet normal -3.926435e-01  6.383612e-01  6.620619e-01
    outer loop
      vertex  -2.195737e+01 -3.857195e+00  1.063852e+01
      vertex  -1.744324e+01  4.789298e+00  4.978710e+00
      vertex  -2.867893e+01  2.918652e+00  1.189352e-01
    endloop
  endfacet
  facet normal -5.990849e-01  7.112461e-01  3.677315e-01
    outer loop
      vertex  -2.878211e+01  3.721510e+00  5.895387e+01
      vertex  -3.726024e+01  1.890516e+00  4.868325e+01
      vertex  -4.017471e+01 -5.170662e+00  5.759253e+01
    endloop
  endfacet
  facet normal -1.722879e-01  8.034614e-01 -5.698829e-01
    outer loop
      vertex  -7.743591e-01  2.008554e+01  1.527177e+01
      vertex   1.315691e+01  1.257752e+01  4.746971e-01
      vertex  -5.385514e+00  1.387646e+01  7.911812e+00
    endloop
  endfacet
  facet normal  3.646488e-01 -6.832381e-01 -6.326270e-01
    outer loop
      vertex  -7.790835e+00  1.052517e+01 -2.081428e-03
      vertex  -9.663852e+00  8.312805e+00  1.307662e+00
      vertex  -1.655444e+01  5.753677e+00  9.976182e-02
    endloop
  endfacet
  facet normal  5.074735e-02 -6.883239e-02 -9.963367e-01
    outer loop
      vertex   5.478556e+00 -9.046745e+00  1.156938e+00
      vertex  -5.920956e+00 -2.312436e+01  1.548874e+00
      vertex  -6.847394e+00 -8.041526e+00  4.596827e-01
    endloop
  endfacet
  facet normal  1.901050e-02  3.806349e-02 -9.990944e-01
    outer loop
      vertex   1.315691e+01  1.257752e+01  4.746971e-01
      vertex  -7.790835e+00  1.052517e+01 -2.081428e-03
      vertex  -1.301308e+01  1.652770e+01  1.272354e-01
    endloop
  endfacet
  facet normal -2.444556e-01  8.788986e-01  4.096079e-01
    outer loop
      vertex  -2.188552e+01  1.114816e+01  3.447612e+01
      vertex  -2.840461e+01  4.528707e+00  4.478891e+01
      vertex  -1.492475e+01  1.001233e+01  4.106749e+01
    endloop
  endfacet
  facet normal -9.611204e-01 -2.328787e-01 -1.483746e-01
    outer loop
      vertex  -1.934727e+01 -1.102634e+01  4.983383e+00
      vertex  -1.906897e+01 -1.755426e+01  1.342644e+01
      vertex  -2.195737e+01 -3.857195e+00  1.063852e+01
    endloop
  endfacet
  facet normal -3.911461e-01  3.201227e-01  8.628594e-01
    outer loop
      vertex  -2.396455e+01 -6.166103e+00  6.677166e+01
      vertex  -2.495092e+01 -1.307167e+00  6.452185e+01
      vertex  -3.329163e+01 -1.642740e+01  6.635053e+01
    endloop
  endfacet
  facet normal -6.631469e-01  3.124564e-01  6.801523e-01
    outer loop
      vertex  -3.188554e+00  1.307631e+01  3.396378e+01
      vertex  -4.195246e+00  2.028562e+01  2.967036e+01
      vertex  -9.630200e+00  1.270360e+01  2.785441e+01
    endloop
  endfacet
  facet normal  1.036064e-01 -9.783143e-01 -1.793517e-01
    outer loop
      vertex  -2.588546e+01 -2.680300e+01  2.994897e+01
      vertex  -1.868685e+01 -2.401204e+01  1.888352e+01
      vertex  -8.073259e+00 -2.441493e+01  2.721232e+01
    endloop
  endfacet
  facet normal -8.260909e-01  5.495750e-01  1.246641e-01
    outer loop
      vertex  -4.022324e+01 -4.121064e+00  3.159660e+01
      vertex  -3.659505e+01 -8.531185e-01  4.123238e+01
      vertex  -3.313645e+01  7.181411e+00  2.873111e+01
    endloop
  endfacet
  facet normal  3.613527e-01  8.916143e-01  2.728519e-01
    outer loop
      vertex   2.803950e+01  6.414086e+00  3.670652e+01
      vertex   1.601109e+01  1.183185e+01  3.493247e+01
      vertex   1.499836e+01  9.169906e+00  4.497227e+01
    endloop
  endfacet
  facet normal  4.704618e-01 -9.272321e-02  8.775353e-01
    outer loop
      vertex  -2.356743e+01 -1.923569e+01  6.517778e+01
      vertex  -1.871982e+01 -7.463364e+00  6.382280e+01
      vertex  -2.396455e+01 -6.166103e+00  6.677166e+01
    endloop
  endfacet
  facet normal  4.120792e-01  5.077381e-01  7.565664e-01
    outer loop
      vertex   2.470569e+01 -4.624816e+00  4.894273e+01
      vertex   1.499836e+01  9.169906e+00  4.497227e+01
      vertex   1.248666e+01 -1.134105e+00  5.325542e+01
    endloop
  endfacet
  facet normal -1.402525e-01 -9.807877e-01 -1.355901e-01
    outer loop
      vertex   1.082913e+01 -3.353133e+01  2.463723e+01
      vertex  -2.453883e+00 -3.168686e+01  2.503506e+01
      vertex   1.104969e+01 -3.143303e+01  9.231057e+00
    endloop
  endfacet
  facet normal  8.556330e-01  4.174414e-01 -3.059979e-01
    outer loop
      vertex   2.748337e+01  1.024034e+01  1.521546e+01
      vertex   3.501534e+01 -2.189112e+00  1.932018e+01
      vertex   2.910855e+01  2.967255e+00  9.837867e+00
    endloop
  endfacet
  facet normal -3.962629e-01  5.109671e-01  7.628162e-01
    outer loop
      vertex  -2.514763e+01  3.321697e+01  7.641551e+01
      vertex  -3.030338e+01  2.878583e+01  7.670541e+01
      vertex  -3.131959e+01  2.482761e+01  7.882890e+01
    endloop
  endfacet
  facet normal -3.968221e-01  2.321315e-01 -8.880581e-01
    outer loop
      vertex   1.272724e+01  5.424379e+00  1.700558e+00
      vertex   1.853438e+01  9.445515e+00  1.567748e-01
      vertex   5.478556e+00 -9.046745e+00  1.156938e+00
    endloop
  endfacet
  facet normal -1.151530e-01 -9.120132e-01  3.936643e-01
    outer loop
      vertex  -5.076427e+00 -2.618288e+01  3.300487e+01
      vertex   9.676444e+00 -2.574852e+01  3.832662e+01
      vertex   2.681111e+00 -2.095138e+01  4.739404e+01
    endloop
  endfacet
  facet normal -6.012024e-01 -7.362518e-01  3.106267e-01
    outer loop
      vertex  -2.453883e+00 -3.168686e+01  2.503506e+01
      vertex   1.614704e+00 -3.194917e+01  3.228788e+01
      vertex  -5.076427e+00 -2.618288e+01  3.300487e+01
    endloop
  endfacet
  facet normal -1.538432e-01  9.866750e-01 -5.296017e-02
    outer loop
      vertex  -2.188552e+01  1.114816e+01  3.447612e+01
      vertex  -9.630200e+00  1.270360e+01  2.785441e+01
      vertex  -2.471272e+01  1.002181e+01  2.170429e+01
    endloop
  endfacet
  facet normal -2.511601e-01  6.236180e-02  9.659346e-01
    outer loop
      vertex  -3.329163e+01 -1.642740e+01  6.635053e+01
      vertex  -3.277030e+01 -7.828739e-01  6.547606e+01
      vertex  -4.147350e+01 -9.188184e+00  6.375573e+01
    endloop
  endfacet
  facet normal -9.488912e-01  1.554197e-01  2.746820e-01
    outer loop
      vertex  -3.048097e+01  2.050700e+01  6.248323e+01
      vertex  -3.331681e+01  3.233551e+00  6.246040e+01
      vertex  -2.823574e+01  2.894842e+01  6.546310e+01
    endloop
  endfacet
  facet normal  6.142648e-02  6.223037e-02 -9.961697e-01
    outer loop
      vertex  -9.663852e+00  8.312805e+00  1.307662e+00
      vertex   5.478556e+00 -9.046745e+00  1.156938e+00
      vertex  -6.847394e+00 -8.041526e+00  4.596827e-01
    endloop
  endfacet
  facet normal  2.965538e-02  9.995368e-01 -6.843759e-03
    outer loop
      vertex  -4.195246e+00  2.028562e+01  2.967036e+01
      vertex   8.474085e+00  1.987271e+01  2.426347e+01
      vertex  -7.743591e-01  2.008554e+01  1.527177e+01
    endloop
  endfacet
  facet normal  3.981038e-01 -4.727772e-01  7.861267e-01
    outer loop
      vertex  -1.456284e+01 -1.087747e+01  5.109422e+01
      vertex  -9.661170e+00 -2.113292e+01  4.244432e+01
      vertex  -6.671077e+00 -6.133933e+00  4.995050e+01
    endloop
  endfacet
  facet normal  9.863940e-01  8.136602e-02  1.428513e-01
    outer loop
      vertex  -2.704734e+01  1.132685e+01  7.180157e+01
      vertex  -2.495092e+01 -1.307167e+00  6.452185e+01
      vertex  -2.486833e+01  3.494127e+00  6.121679e+01
    endloop
  endfacet
  facet normal  1.845939e-02  2.578979e-02 -9.994969e-01
    outer loop
      vertex  -2.637913e+01 -1.094329e+01  2.408369e-02
      vertex  -6.847394e+00 -8.041526e+00  4.596827e-01
      vertex  -1.146451e+01 -2.452185e+01 -5.082738e-02
    endloop
  endfacet
  facet normal -6.005713e-01  3.023761e-01 -7.401911e-01
    outer loop
      vertex  -4.255151e+01 -1.929852e+01  4.721838e+01
      vertex  -3.324776e+01 -2.006206e+01  3.935765e+01
      vertex  -3.896492e+01 -2.556728e+01  4.174746e+01
    endloop
  endfacet
  facet normal -7.498396e-01 -6.600190e-01  4.599311e-02
    outer loop
      vertex  -1.146451e+01 -2.452185e+01 -5.082738e-02
      vertex  -5.398789e+00 -3.140261e+01  9.887289e-02
      vertex  -1.272742e+01 -2.272281e+01  5.176530e+00
    endloop
  endfacet
  facet normal  1.313628e-01  8.127643e-01  5.675896e-01
    outer loop
      vertex  -7.711679e+00  5.440694e+00  4.594449e+01
      vertex  -3.188554e+00  1.307631e+01  3.396378e+01
      vertex  -1.492475e+01  1.001233e+01  4.106749e+01
    endloop
  endfacet
  facet normal  1.684815e-01 -8.116168e-01  5.593677e-01
    outer loop
      vertex   9.676444e+00 -2.574852e+01  3.832662e+01
      vertex   1.149389e+01 -1.544255e+01  5.273270e+01
      vertex   2.681111e+00 -2.095138e+01  4.739404e+01
    endloop
  endfacet
  facet normal -9.907774e-01 -1.359060e-02  1.348164e-01
    outer loop
      vertex  -3.895412e+01 -9.850882e+00  4.034588e+01
      vertex  -4.022324e+01 -4.121064e+00  3.159660e+01
      vertex  -4.006943e+01 -1.472546e+01  3.165799e+01
    endloop
  endfacet
  facet normal  8.438613e-01 -4.944200e-01 -2.084397e-01
    outer loop
      vertex   3.647998e+01 -2.013080e+01  1.171942e+01
      vertex   3.975219e+01 -1.206259e+01  5.829020e+00
      vertex   4.324964e+01 -1.156545e+01  1.880913e+01
    endloop
  endfacet
  facet normal -4.435643e-01 -6.490322e-01  6.180680e-01
    outer loop
      vertex  -2.637913e+01 -1.094329e+01  2.408369e-02
      vertex  -1.934727e+01 -1.102634e+01  4.983383e+00
      vertex  -2.195737e+01 -3.857195e+00  1.063852e+01
    endloop
  endfacet
  facet normal -6.467419e-02 -5.669002e-01  8.212438e-01
    outer loop
      vertex  -3.329163e+01 -1.642740e+01  6.635053e+01
      vertex  -3.277151e+01 -2.745021e+01  5.878251e+01
      vertex  -2.356743e+01 -1.923569e+01  6.517778e+01
    endloop
  endfacet
  facet normal -1.505775e-01 -9.002575e-01  4.084884e-01
    outer loop
      vertex  -5.076427e+00 -2.618288e+01  3.300487e+01
      vertex   2.681111e+00 -2.095138e+01  4.739404e+01
      vertex  -9.661170e+00 -2.113292e+01  4.244432e+01
    endloop
  endfacet
  facet normal  9.032336e-01  2.354108e-01  3.588186e-01
    outer loop
      vertex  -1.787969e+01  1.267840e+00  5.147533e+01
      vertex  -1.913332e+01 -5.935025e+00  5.935663e+01
      vertex  -1.456284e+01 -1.087747e+01  5.109422e+01
    endloop
  endfacet
  facet normal -3.075114e-01  5.807441e-01 -7.537724e-01
    outer loop
      vertex  -2.471272e+01  1.002181e+01  2.170429e+01
      vertex  -1.960308e+01  5.969425e+00  1.649759e+01
      vertex  -3.155836e+01  2.860687e-01  1.699616e+01
    endloop
  endfacet
  facet normal  4.628963e-01  8.271209e-01 -3.187445e-01
    outer loop
      vertex   1.315691e+01  1.257752e+01  4.746971e-01
      vertex   2.748337e+01  1.024034e+01  1.521546e+01
      vertex   1.853438e+01  9.445515e+00  1.567748e-01
    endloop
  endfacet
  facet normal -3.062468e-03  6.334327e-03 -9.999753e-01
    outer loop
      vertex  -1.655444e+01  5.753677e+00  9.976182e-02
      vertex  -2.637913e+01 -1.094329e+01  2.408369e-02
      vertex  -2.867893e+01  2.918652e+00  1.189352e-01
    endloop
  endfacet
  facet normal -4.647218e-02 -4.794553e-01 -8.763349e-01
    outer loop
      vertex  -9.663852e+00  8.312805e+00  1.307662e+00
      vertex  -7.790835e+00  1.052517e+01 -2.081428e-03
      vertex   1.272724e+01  5.424379e+00  1.700558e+00
    endloop
  endfacet
  facet normal  9.818339e-01  1.819887e-01  5.368615e-02
    outer loop
      vertex   8.492762e-01  1.322664e+01  7.642496e+01
      vertex   6.474968e-01  1.212433e+01  8.385185e+01
      vertex   1.467484e+00  1.000202e+01  7.604996e+01
    endloop
  endfacet
  facet normal  1.446871e-01  7.607023e-02 -9.865490e-01
    outer loop
      vertex  -6.847394e+00 -8.041526e+00  4.596827e-01
      vertex  -1.655444e+01  5.753677e+00  9.976182e-02
      vertex  -9.663852e+00  8.312805e+00  1.307662e+00
    endloop
  endfacet
  facet normal -3.210514e-01 -2.534384e-01 -9.125213e-01
    outer loop
      vertex  -1.906897e+01 -1.755426e+01  1.342644e+01
      vertex  -3.367737e+01 -1.076627e+01  1.668084e+01
      vertex  -2.195737e+01 -3.857195e+00  1.063852e+01
    endloop
  endfacet
  facet normal -5.854079e-01  7.622187e-01 -2.762616e-01
    outer loop
      vertex  -7.743591e-01  2.008554e+01  1.527177e+01
      vertex  -5.385514e+00  1.387646e+01  7.911812e+00
      vertex  -8.372371e+00  1.700150e+01  2.286320e+01
    endloop
  endfacet
  facet normal -9.062603e-01 -4.005195e-01 -1.351908e-01
    outer loop
      vertex  -4.255151e+01 -1.929852e+01  4.721838e+01
      vertex  -3.896492e+01 -2.556728e+01  4.174746e+01
      vertex  -3.982034e+01 -2.728858e+01  5.258138e+01
    endloop
  endfacet
  facet normal -6.115273e-01  7.317014e-01  3.010773e-01
    outer loop
      vertex  -3.313645e+01  7.181411e+00  2.873111e+01
      vertex  -3.659505e+01 -8.531185e-01  4.123238e+01
      vertex  -2.840461e+01  4.528707e+00  4.478891e+01
    endloop
  endfacet
  facet normal -1.019039e-01 -9.449791e-01 -3.108538e-01
    outer loop
      vertex   2.370860e+01 -1.492181e+01  7.107558e-02
      vertex   3.647998e+01 -2.013080e+01  1.171942e+01
      vertex   3.056117e+01 -1.926489e+01  1.102739e+01
    endloop
  endfacet
  facet normal  8.552394e-01 -5.176553e-01 -2.446878e-02
    outer loop
      vertex   3.414808e+01 -1.421190e+01  2.949827e+01
      vertex   3.056117e+01 -1.926489e+01  1.102739e+01
      vertex   3.520681e+01 -1.203077e+01  2.035990e+01
    endloop
  endfacet
  facet normal  3.579287e-01 -6.409211e-01 -6.790487e-01
    outer loop
      vertex   3.647998e+01 -2.013080e+01  1.171942e+01
      vertex   2.370860e+01 -1.492181e+01  7.107558e-02
      vertex   3.975219e+01 -1.206259e+01  5.829020e+00
    endloop
  endfacet
  facet normal  6.929117e-02 -8.235146e-01  5.630476e-01
    outer loop
      vertex   2.194816e+01 -1.995557e+01  4.528918e+01
      vertex   9.676444e+00 -2.574852e+01  3.832662e+01
      vertex   2.062365e+01 -2.661849e+01  3.570699e+01
    endloop
  endfacet
  facet normal  8.263280e-01 -4.848379e-01 -2.865556e-01
    outer loop
      vertex  -2.074333e+01 -2.110738e+01  5.058030e+01
      vertex  -2.360432e+01 -2.139136e+01  4.281068e+01
      vertex  -1.456284e+01 -1.087747e+01  5.109422e+01
    endloop
  endfacet
  facet normal  1.738229e-01 -9.174935e-01  3.577589e-01
    outer loop
      vertex  -2.611464e+01 -2.694051e+01  8.643759e-01
      vertex  -1.146451e+01 -2.452185e+01 -5.082738e-02
      vertex  -1.272742e+01 -2.272281e+01  5.176530e+00
    endloop
  endfacet
  facet normal  5.009458e-01 -8.584914e-01 -1.097537e-01
    outer loop
      vertex   1.082913e+01 -3.353133e+01  2.463723e+01
      vertex   1.104969e+01 -3.143303e+01  9.231057e+00
      vertex   2.816495e+01 -2.397692e+01  2.902823e+01
    endloop
  endfacet
  facet normal  8.661233e-01  4.851802e-01 -1.201274e-01
    outer loop
      vertex   2.748337e+01  1.024034e+01  1.521546e+01
      vertex   3.168487e+01  6.001408e+00  2.838784e+01
      vertex   3.501534e+01 -2.189112e+00  1.932018e+01
    endloop
  endfacet
  facet normal  1.393163e-01  6.974060e-03  9.902233e-01
    outer loop
      vertex  -6.671077e+00 -6.133933e+00  4.995050e+01
      vertex  -1.787969e+01  1.267840e+00  5.147533e+01
      vertex  -1.456284e+01 -1.087747e+01  5.109422e+01
    endloop
  endfacet
  facet normal  4.185468e-02  7.590807e-01  6.496497e-01
    outer loop
      vertex  -1.787969e+01  1.267840e+00  5.147533e+01
      vertex  -7.711679e+00  5.440694e+00  4.594449e+01
      vertex  -1.492475e+01  1.001233e+01  4.106749e+01
    endloop
  endfacet
  facet normal  9.651038e-01  2.244322e-02 -2.609041e-01
    outer loop
      vertex   3.975219e+01 -1.206259e+01  5.829020e+00
      vertex   4.205715e+01 -5.566546e-01  1.534501e+01
      vertex   4.324964e+01 -1.156545e+01  1.880913e+01
    endloop
  endfacet
  facet normal -8.830844e-03  2.153123e-02 -9.997292e-01
    outer loop
      vertex  -5.398789e+00 -3.140261e+01  9.887289e-02
      vertex   1.513013e+01 -1.924035e+01  1.794754e-01
      vertex   1.859385e+01 -2.495743e+01  2.575050e-02
    endloop
  endfacet
  facet normal -4.828391e-01  6.993070e-01 -5.271016e-01
    outer loop
      vertex  -4.017471e+01 -5.170662e+00  5.759253e+01
      vertex  -3.331681e+01  3.233551e+00  6.246040e+01
      vertex  -2.878211e+01  3.721510e+00  5.895387e+01
    endloop
  endfacet
  facet normal  4.948537e-02  8.900484e-01  4.531720e-01
    outer loop
      vertex   2.910855e+01  2.967255e+00  9.837867e+00
      vertex   3.501534e+01 -2.189112e+00  1.932018e+01
      vertex   4.205715e+01 -5.566546e-01  1.534501e+01
    endloop
  endfacet
  facet normal -4.519330e-01  3.324845e-01  8.277745e-01
    outer loop
      vertex  -1.744324e+01  4.789298e+00  4.978710e+00
      vertex  -8.453713e+00  4.860176e+00  9.858179e+00
      vertex  -5.385514e+00  1.387646e+01  7.911812e+00
    endloop
  endfacet
  facet normal -4.402351e-01  8.559682e-01  2.711301e-01
    outer loop
      vertex  -3.313645e+01  7.181411e+00  2.873111e+01
      vertex  -2.840461e+01  4.528707e+00  4.478891e+01
      vertex  -2.188552e+01  1.114816e+01  3.447612e+01
    endloop
  endfacet
  facet normal -6.514386e-01  7.508377e-01 -1.089514e-01
    outer loop
      vertex  -2.514763e+01  3.321697e+01  7.641551e+01
      vertex  -2.823574e+01  2.894842e+01  6.546310e+01
      vertex  -3.030338e+01  2.878583e+01  7.670541e+01
    endloop
  endfacet
  facet normal  8.522906e-01  3.847082e-01  3.544013e-01
    outer loop
      vertex   2.803950e+01  6.414086e+00  3.670652e+01
      vertex   3.382217e+01 -5.476085e+00  3.570688e+01
      vertex   3.168487e+01  6.001408e+00  2.838784e+01
    endloop
  endfacet
  facet normal -5.107732e-01  1.222062e-01 -8.509855e-01
    outer loop
      vertex  -3.155836e+01  2.860687e-01  1.699616e+01
      vertex  -2.195737e+01 -3.857195e+00  1.063852e+01
      vertex  -3.367737e+01 -1.076627e+01  1.668084e+01
    endloop
  endfacet
  facet normal  4.463327e-01 -8.812674e-01  1.554187e-01
    outer loop
      vertex   2.816495e+01 -2.397692e+01  2.902823e+01
      vertex   2.062365e+01 -2.661849e+01  3.570699e+01
      vertex   1.082913e+01 -3.353133e+01  2.463723e+01
    endloop
  endfacet
  facet normal  6.863151e-01 -6.927233e-01  2.215985e-01
    outer loop
      vertex  -2.356743e+01 -1.923569e+01  6.517778e+01
      vertex  -2.943744e+01 -3.149547e+01  4.503346e+01
      vertex  -2.074333e+01 -2.110738e+01  5.058030e+01
    endloop
  endfacet
  facet normal  7.106587e-01  1.254661e-01 -6.922590e-01
    outer loop
      vertex   1.853438e+01  9.445515e+00  1.567748e-01
      vertex   2.910855e+01  2.967255e+00  9.837867e+00
      vertex   1.979076e+01  1.028287e+00 -7.900140e-02
    endloop
  endfacet
  facet normal  7.182856e-01 -3.634016e-01 -5.933001e-01
    outer loop
      vertex   2.370860e+01 -1.492181e+01  7.107558e-02
      vertex   3.056117e+01 -1.926489e+01  1.102739e+01
      vertex   1.859385e+01 -2.495743e+01  2.575050e-02
    endloop
  endfacet
  facet normal -9.181296e-01 -1.561003e-02 -3.959726e-01
    outer loop
      vertex  -4.006943e+01 -1.472546e+01  3.165799e+01
      vertex  -4.022324e+01 -4.121064e+00  3.159660e+01
      vertex  -3.367737e+01 -1.076627e+01  1.668084e+01
    endloop
  endfacet
  facet normal -7.476456e-01 -6.354815e-01  1.928457e-01
    outer loop
      vertex  -8.073259e+00 -2.441493e+01  2.721232e+01
      vertex  -2.453883e+00 -3.168686e+01  2.503506e+01
      vertex  -5.076427e+00 -2.618288e+01  3.300487e+01
    endloop
  endfacet
  facet normal  5.568794e-01  1.272027e-01 -8.207952e-01
    outer loop
      vertex   2.930554e+01 -2.510159e+00  2.217418e-01
      vertex   3.748131e+01  3.814830e-01  6.216832e+00
      vertex   3.975219e+01 -1.206259e+01  5.829020e+00
    endloop
  endfacet
  facet normal -9.713651e-01 -1.086482e-02  2.373435e-01
    outer loop
      vertex  -4.017471e+01 -5.170662e+00  5.759253e+01
      vertex  -4.327132e+01 -9.163811e+00  4.473637e+01
      vertex  -4.255151e+01 -1.929852e+01  4.721838e+01
    endloop
  endfacet
  facet normal  2.785867e-01  9.595340e-01 -4.103715e-02
    outer loop
      vertex   4.205715e+01 -5.566546e-01  1.534501e+01
      vertex   3.748131e+01  3.814830e-01  6.216832e+00
      vertex   2.910855e+01  2.967255e+00  9.837867e+00
    endloop
  endfacet
  facet normal -1.362323e-01 -9.898437e-01  4.062267e-02
    outer loop
      vertex   1.614704e+00 -3.194917e+01  3.228788e+01
      vertex  -2.453883e+00 -3.168686e+01  2.503506e+01
      vertex   1.082913e+01 -3.353133e+01  2.463723e+01
    endloop
  endfacet
  facet normal  1.440835e-01  9.712318e-01  1.896011e-01
    outer loop
      vertex   1.315691e+01  1.257752e+01  4.746971e-01
      vertex  -1.301308e+01  1.652770e+01  1.272354e-01
      vertex  -5.385514e+00  1.387646e+01  7.911812e+00
    endloop
  endfacet
  facet normal  4.034761e-01 -5.235121e-01 -7.504280e-01
    outer loop
      vertex  -2.486833e+01  3.494127e+00  6.121679e+01
      vertex  -2.495092e+01 -1.307167e+00  6.452185e+01
      vertex  -2.878211e+01  3.721510e+00  5.895387e+01
    endloop
  endfacet
  facet normal  9.268692e-01  1.777724e-01 -3.306212e-01
    outer loop
      vertex  -2.514763e+01  3.321697e+01  7.641551e+01
      vertex  -2.486833e+01  3.494127e+00  6.121679e+01
      vertex  -2.823574e+01  2.894842e+01  6.546310e+01
    endloop
  endfacet
  facet normal -5.866701e-01 -4.770038e-01  6.544354e-01
    outer loop
      vertex  -3.329163e+01 -1.642740e+01  6.635053e+01
      vertex  -3.982034e+01 -2.728858e+01  5.258138e+01
      vertex  -3.277151e+01 -2.745021e+01  5.878251e+01
    endloop
  endfacet
  facet normal  1.072253e-01 -9.893317e-01 -9.861754e-02
    outer loop
      vertex  -8.073259e+00 -2.441493e+01  2.721232e+01
      vertex  -1.272742e+01 -2.272281e+01  5.176530e+00
      vertex  -5.590755e+00 -2.246310e+01  1.033078e+01
    endloop
  endfacet
  facet normal -2.063408e-03 -4.622239e-01  8.867608e-01
    outer loop
      vertex  -3.277030e+01 -7.828739e-01  6.547606e+01
      vertex  -2.704734e+01  1.132685e+01  7.180157e+01
      vertex  -3.131959e+01  2.482761e+01  7.882890e+01
    endloop
  endfacet
  facet normal  1.484526e-01 -9.838343e-01 -1.001595e-01
    outer loop
      vertex   2.104190e+00 -2.811845e+01  6.635083e+00
      vertex   1.859385e+01 -2.495743e+01  2.575050e-02
      vertex   1.558220e+01 -2.588082e+01  4.632153e+00
    endloop
  endfacet
  facet normal -5.143294e-01 -8.037030e-01 -2.992105e-01
    outer loop
      vertex  -1.868685e+01 -2.401204e+01  1.888352e+01
      vertex  -1.885803e+01 -1.996212e+01  8.299344e+00
      vertex  -1.272742e+01 -2.272281e+01  5.176530e+00
    endloop
  endfacet
  facet normal  7.850524e-01  3.381716e-01  5.189727e-01
    outer loop
      vertex   2.470569e+01 -4.624816e+00  4.894273e+01
      vertex   3.382217e+01 -5.476085e+00  3.570688e+01
      vertex   2.803950e+01  6.414086e+00  3.670652e+01
    endloop
  endfacet
  facet normal -1.899153e-01  9.643434e-01 -1.843206e-01
    outer loop
      vertex  -5.920956e+00 -2.312436e+01  1.548874e+00
      vertex   1.513013e+01 -1.924035e+01  1.794754e-01
      vertex  -1.146451e+01 -2.452185e+01 -5.082738e-02
    endloop
  endfacet
  facet normal  2.663035e-02 -9.962661e-01 -8.212762e-02
    outer loop
      vertex  -8.073259e+00 -2.441493e+01  2.721232e+01
      vertex  -1.868685e+01 -2.401204e+01  1.888352e+01
      vertex  -1.272742e+01 -2.272281e+01  5.176530e+00
    endloop
  endfacet
  facet normal  8.935447e-01 -3.929427e-01 -2.171955e-01
    outer loop
      vertex  -2.356743e+01 -1.923569e+01  6.517778e+01
      vertex  -1.913332e+01 -5.935025e+00  5.935663e+01
      vertex  -1.871982e+01 -7.463364e+00  6.382280e+01
    endloop
  endfacet
  facet normal -9.981412e-01 -5.951535e-02 -1.311487e-02
    outer loop
      vertex  -1.934727e+01 -1.102634e+01  4.983383e+00
      vertex  -1.885803e+01 -1.996212e+01  8.299344e+00
      vertex  -1.906897e+01 -1.755426e+01  1.342644e+01
    endloop
  endfacet
  facet normal  5.949369e-01 -2.148815e-01  7.745166e-01
    outer loop
      vertex  -3.131959e+01  2.482761e+01  7.882890e+01
      vertex  -2.704734e+01  1.132685e+01  7.180157e+01
      vertex  -2.514763e+01  3.321697e+01  7.641551e+01
    endloop
  endfacet
  facet normal  9.590917e-01  2.558596e-01  1.211569e-01
    outer loop
      vertex   3.501534e+01 -2.189112e+00  1.932018e+01
      vertex   3.168487e+01  6.001408e+00  2.838784e+01
      vertex   3.382217e+01 -5.476085e+00  3.570688e+01
    endloop
  endfacet
  facet normal  3.803237e-01 -9.226571e-01  6.370042e-02
    outer loop
      vertex   1.859385e+01 -2.495743e+01  2.575050e-02
      vertex   3.056117e+01 -1.926489e+01  1.102739e+01
      vertex   1.558220e+01 -2.588082e+01  4.632153e+00
    endloop
  endfacet
  facet normal -1.192829e-01  8.570707e-01  5.012000e-01
    outer loop
      vertex  -3.188554e+00  1.307631e+01  3.396378e+01
      vertex  -7.711679e+00  5.440694e+00  4.594449e+01
      vertex   1.499836e+01  9.169906e+00  4.497227e+01
    endloop
  endfacet
  facet normal  7.645606e-01 -5.970813e-01  2.427776e-01
    outer loop
      vertex   6.474968e-01  1.212433e+01  8.385185e+01
      vertex  -5.197012e+00  3.289616e+00  8.052962e+01
      vertex   1.467484e+00  1.000202e+01  7.604996e+01
    endloop
  endfacet
  facet normal -7.029611e-03 -1.113503e-02 -9.999133e-01
    outer loop
      vertex   1.979076e+01  1.028287e+00 -7.900140e-02
      vertex   2.370860e+01 -1.492181e+01  7.107558e-02
      vertex   1.513013e+01 -1.924035e+01  1.794754e-01
    endloop
  endfacet
  facet normal -8.282068e-01  4.273908e-01 -3.625060e-01
    outer loop
      vertex  -3.155836e+01  2.860687e-01  1.699616e+01
      vertex  -4.022324e+01 -4.121064e+00  3.159660e+01
      vertex  -3.313645e+01  7.181411e+00  2.873111e+01
    endloop
  endfacet
  facet normal -9.989833e-01 -1.867229e-02 -4.103299e-02
    outer loop
      vertex  -2.637913e+01 -1.094329e+01  2.408369e-02
      vertex  -2.611464e+01 -2.694051e+01  8.643759e-01
      vertex  -2.642964e+01 -1.854232e+01  4.711690e+00
    endloop
  endfacet
  facet normal -7.130378e-01 -2.141444e-01 -6.676221e-01
    outer loop
      vertex  -4.255151e+01 -1.929852e+01  4.721838e+01
      vertex  -4.327132e+01 -9.163811e+00  4.473637e+01
      vertex  -3.895412e+01 -9.850882e+00  4.034588e+01
    endloop
  endfacet
  facet normal  4.718384e-01 -2.838047e-01  8.347595e-01
    outer loop
      vertex   2.470569e+01 -4.624816e+00  4.894273e+01
      vertex   1.149389e+01 -1.544255e+01  5.273270e+01
      vertex   2.194816e+01 -1.995557e+01  4.528918e+01
    endloop
  endfacet
  facet normal -6.718560e-01  2.450169e-01 -6.989822e-01
    outer loop
      vertex  -3.659505e+01 -8.531185e-01  4.123238e+01
      vertex  -3.895412e+01 -9.850882e+00  4.034588e+01
      vertex  -4.327132e+01 -9.163811e+00  4.473637e+01
    endloop
  endfacet
  facet normal -3.275779e-01  9.447623e-01 -1.080559e-02
    outer loop
      vertex  -2.471272e+01  1.002181e+01  2.170429e+01
      vertex  -3.313645e+01  7.181411e+00  2.873111e+01
      vertex  -2.188552e+01  1.114816e+01  3.447612e+01
    endloop
  endfacet
  facet normal  2.707421e-01  6.692021e-01 -6.920024e-01
    outer loop
      vertex   3.748131e+01  3.814830e-01  6.216832e+00
      vertex   2.930554e+01 -2.510159e+00  2.217418e-01
      vertex   1.979076e+01  1.028287e+00 -7.900140e-02
    endloop
  endfacet
  facet normal  1.104503e-02 -1.201674e-02 -9.998667e-01
    outer loop
      vertex   1.513013e+01 -1.924035e+01  1.794754e-01
      vertex  -5.398789e+00 -3.140261e+01  9.887289e-02
      vertex  -1.146451e+01 -2.452185e+01 -5.082738e-02
    endloop
  endfacet
  facet normal  3.091980e-02 -1.809783e-03 -9.995202e-01
    outer loop
      vertex   2.930554e+01 -2.510159e+00  2.217418e-01
      vertex   2.370860e+01 -1.492181e+01  7.107558e-02
      vertex   1.979076e+01  1.028287e+00 -7.900140e-02
    endloop
  endfacet
  facet normal -7.272909e-01 -6.790742e-01 -9.952991e-02
    outer loop
      vertex   1.427676e+01 -1.856582e+01  1.813063e+00
      vertex   5.478556e+00 -9.046745e+00  1.156938e+00
      vertex   1.513013e+01 -1.924035e+01  1.794754e-01
    endloop
  endfacet
  facet normal  1.822819e-01  1.068069e-01  9.774281e-01
    outer loop
      vertex   4.324964e+01 -1.156545e+01  1.880913e+01
      vertex   3.501534e+01 -2.189112e+00  1.932018e+01
      vertex   3.520681e+01 -1.203077e+01  2.035990e+01
    endloop
  endfacet
  facet normal -8.596033e-03 -3.475545e-01 -9.376203e-01
    outer loop
      vertex  -7.790835e+00  1.052517e+01 -2.081428e-03
      vertex   1.853438e+01  9.445515e+00  1.567748e-01
      vertex   1.272724e+01  5.424379e+00  1.700558e+00
    endloop
  endfacet
  facet normal -3.945529e-01 -4.707918e-01 -7.891027e-01
    outer loop
      vertex  -3.355696e+01 -2.068542e+01  2.253857e+01
      vertex  -3.367737e+01 -1.076627e+01  1.668084e+01
      vertex  -1.906897e+01 -1.755426e+01  1.342644e+01
    endloop
  endfacet
  facet normal -9.937121e-01 -1.039191e-01  4.167892e-02
    outer loop
      vertex  -3.331681e+01  3.233551e+00  6.246040e+01
      vertex  -3.277030e+01 -7.828739e-01  6.547606e+01
      vertex  -3.506209e+01  2.582377e+01  7.717403e+01
    endloop
  endfacet
  facet normal -8.031142e-01  5.322974e-01 -2.677071e-01
    outer loop
      vertex  -3.659505e+01 -8.531185e-01  4.123238e+01
      vertex  -4.327132e+01 -9.163811e+00  4.473637e+01
      vertex  -3.726024e+01  1.890516e+00  4.868325e+01
    endloop
  endfacet
  facet normal -8.688160e-01  1.797358e-01 -4.613608e-01
    outer loop
      vertex  -3.367737e+01 -1.076627e+01  1.668084e+01
      vertex  -4.022324e+01 -4.121064e+00  3.159660e+01
      vertex  -3.155836e+01  2.860687e-01  1.699616e+01
    endloop
  endfacet
  facet normal -2.923468e-01 -4.445186e-01  8.467211e-01
    outer loop
      vertex   1.614704e+00 -3.194917e+01  3.228788e+01
      vertex   9.676444e+00 -2.574852e+01  3.832662e+01
      vertex  -5.076427e+00 -2.618288e+01  3.300487e+01
    endloop
  endfacet
  facet normal  9.510972e-01 -2.239726e-01  2.127214e-01
    outer loop
      vertex  -1.913332e+01 -5.935025e+00  5.935663e+01
      vertex  -2.356743e+01 -1.923569e+01  6.517778e+01
      vertex  -2.074333e+01 -2.110738e+01  5.058030e+01
    endloop
  endfacet
  facet normal -6.044729e-01  6.486638e-01 -4.624367e-01
    outer loop
      vertex  -3.313645e+01  7.181411e+00  2.873111e+01
      vertex  -2.471272e+01  1.002181e+01  2.170429e+01
      vertex  -3.155836e+01  2.860687e-01  1.699616e+01
    endloop
  endfacet
  facet normal -2.680485e-01 -8.700893e-01  4.136359e-01
    outer loop
      vertex  -3.324776e+01 -2.006206e+01  3.935765e+01
      vertex  -2.588546e+01 -2.680300e+01  2.994897e+01
      vertex  -2.360432e+01 -2.139136e+01  4.281068e+01
    endloop
  endfacet
  facet normal  2.593274e-01  9.638080e-01  6.183425e-02
    outer loop
      vertex  -2.840461e+01  4.528707e+00  4.478891e+01
      vertex  -2.878211e+01  3.721510e+00  5.895387e+01
      vertex  -1.787969e+01  1.267840e+00  5.147533e+01
    endloop
  endfacet
  facet normal -9.815706e-01  2.713173e-02 -1.891640e-01
    outer loop
      vertex  -4.147350e+01 -9.188184e+00  6.375573e+01
      vertex  -4.017471e+01 -5.170662e+00  5.759253e+01
      vertex  -3.982034e+01 -2.728858e+01  5.258138e+01
    endloop
  endfacet
  facet normal  8.045009e-01 -5.253848e-01 -2.770363e-01
    outer loop
      vertex  -2.943744e+01 -3.149547e+01  4.503346e+01
      vertex  -2.360432e+01 -2.139136e+01  4.281068e+01
      vertex  -2.074333e+01 -2.110738e+01  5.058030e+01
    endloop
  endfacet
  facet normal -4.783946e-01  8.690966e-01 -1.257361e-01
    outer loop
      vertex  -4.195246e+00  2.028562e+01  2.967036e+01
      vertex  -7.743591e-01  2.008554e+01  1.527177e+01
      vertex  -8.372371e+00  1.700150e+01  2.286320e+01
    endloop
  endfacet
  facet normal  1.490512e-01  9.346594e-01 -3.227935e-01
    outer loop
      vertex   3.748131e+01  3.814830e-01  6.216832e+00
      vertex   1.979076e+01  1.028287e+00 -7.900140e-02
      vertex   2.910855e+01  2.967255e+00  9.837867e+00
    endloop
  endfacet
  facet normal  2.555461e-01 -9.492053e-01  1.835904e-01
    outer loop
      vertex   1.859385e+01 -2.495743e+01  2.575050e-02
      vertex   2.104190e+00 -2.811845e+01  6.635083e+00
      vertex  -5.398789e+00 -3.140261e+01  9.887289e-02
    endloop
  endfacet
  facet normal  1.455378e-01  9.522786e-01  2.682988e-01
    outer loop
      vertex  -4.195246e+00  2.028562e+01  2.967036e+01
      vertex   1.532962e+01  1.652979e+01  3.240981e+01
      vertex   8.474085e+00  1.987271e+01  2.426347e+01
    endloop
  endfacet
  facet normal -2.658264e-01  9.628359e-01  4.778327e-02
    outer loop
      vertex  -2.878211e+01  3.721510e+00  5.895387e+01
      vertex  -2.840461e+01  4.528707e+00  4.478891e+01
      vertex  -3.726024e+01  1.890516e+00  4.868325e+01
    endloop
  endfacet
  facet normal  3.178678e-01 -5.663091e-02  9.464423e-01
    outer loop
      vertex   1.248666e+01 -1.134105e+00  5.325542e+01
      vertex   1.149389e+01 -1.544255e+01  5.273270e+01
      vertex   2.470569e+01 -4.624816e+00  4.894273e+01
    endloop
  endfacet
  facet normal -2.203673e-01 -9.489319e-01  2.257576e-01
    outer loop
      vertex  -3.277151e+01 -2.745021e+01  5.878251e+01
      vertex  -3.982034e+01 -2.728858e+01  5.258138e+01
      vertex  -2.943744e+01 -3.149547e+01  4.503346e+01
    endloop
  endfacet
  facet normal -4.531473e-01 -3.852654e-01  8.038832e-01
    outer loop
      vertex  -2.642964e+01 -1.854232e+01  4.711690e+00
      vertex  -2.611464e+01 -2.694051e+01  8.643759e-01
      vertex  -1.885803e+01 -1.996212e+01  8.299344e+00
    endloop
  endfacet
  facet normal -6.323573e-01 -2.836159e-01 -7.208927e-01
    outer loop
      vertex  -4.255151e+01 -1.929852e+01  4.721838e+01
      vertex  -3.895412e+01 -9.850882e+00  4.034588e+01
      vertex  -3.324776e+01 -2.006206e+01  3.935765e+01
    endloop
  endfacet
  facet normal  6.793495e-02 -8.630643e-01  5.005046e-01
    outer loop
      vertex  -1.871982e+01 -7.463364e+00  6.382280e+01
      vertex  -5.197012e+00  3.289616e+00  8.052962e+01
      vertex  -2.396455e+01 -6.166103e+00  6.677166e+01
    endloop
  endfacet
  facet normal  7.331574e-02 -4.887474e-01  8.693392e-01
    outer loop
      vertex  -2.495092e+01 -1.307167e+00  6.452185e+01
      vertex  -2.704734e+01  1.132685e+01  7.180157e+01
      vertex  -3.277030e+01 -7.828739e-01  6.547606e+01
    endloop
  endfacet
  facet normal  5.588679e-01 -7.673702e-01 -3.143399e-01
    outer loop
      vertex  -1.871982e+01 -7.463364e+00  6.382280e+01
      vertex  -1.913332e+01 -5.935025e+00  5.935663e+01
      vertex   2.679165e+00  5.532737e+00  7.014203e+01
    endloop
  endfacet
  facet normal  5.093799e-01 -7.561335e-01 -4.108459e-01
    outer loop
      vertex   3.056117e+01 -1.926489e+01  1.102739e+01
      vertex   1.104969e+01 -3.143303e+01  9.231057e+00
      vertex   1.558220e+01 -2.588082e+01  4.632153e+00
    endloop
  endfacet
  facet normal -3.189444e-01  8.714201e-01 -3.726948e-01
    outer loop
      vertex  -1.925105e+01 -1.668812e+00  5.879844e+01
      vertex  -2.495092e+01 -1.307167e+00  6.452185e+01
      vertex   8.492762e-01  1.322664e+01  7.642496e+01
    endloop
  endfacet
  facet normal  6.574472e-01 -4.283449e-01  6.199063e-01
    outer loop
      vertex  -1.913332e+01 -5.935025e+00  5.935663e+01
      vertex  -2.074333e+01 -2.110738e+01  5.058030e+01
      vertex  -1.456284e+01 -1.087747e+01  5.109422e+01
    endloop
  endfacet
  facet normal  1.089065e-02  1.194732e-01 -9.927777e-01
    outer loop
      vertex   1.315691e+01  1.257752e+01  4.746971e-01
      vertex   1.853438e+01  9.445515e+00  1.567748e-01
      vertex  -7.790835e+00  1.052517e+01 -2.081428e-03
    endloop
  endfacet
  facet normal -2.276302e-02  5.091934e-01  8.603511e-01
    outer loop
      vertex   1.532962e+01  1.652979e+01  3.240981e+01
      vertex  -4.195246e+00  2.028562e+01  2.967036e+01
      vertex  -3.188554e+00  1.307631e+01  3.396378e+01
    endloop
  endfacet
  facet normal  5.331274e-01 -8.331448e-01 -1.471218e-01
    outer loop
      vertex   3.056117e+01 -1.926489e+01  1.102739e+01
      vertex   2.816495e+01 -2.397692e+01  2.902823e+01
      vertex   1.104969e+01 -3.143303e+01  9.231057e+00
    endloop
  endfacet
  facet normal -5.158559e-01  1.919264e-02  8.564604e-01
    outer loop
      vertex  -5.197012e+00  3.289616e+00  8.052962e+01
      vertex   6.474968e-01  1.212433e+01  8.385185e+01
      vertex  -1.569586e+01  2.800435e+00  7.421700e+01
    endloop
  endfacet
  facet normal -4.572589e-01 -3.906513e-01  7.989405e-01
    outer loop
      vertex  -3.506209e+01  2.582377e+01  7.717403e+01
      vertex  -3.277030e+01 -7.828739e-01  6.547606e+01
      vertex  -3.131959e+01  2.482761e+01  7.882890e+01
    endloop
  endfacet
  facet normal -5.415112e-01  8.237513e-01  1.679268e-01
    outer loop
      vertex  -1.569586e+01  2.800435e+00  7.421700e+01
      vertex   8.492762e-01  1.322664e+01  7.642496e+01
      vertex  -2.495092e+01 -1.307167e+00  6.452185e+01
    endloop
  endfacet
  facet normal -3.790955e-01  4.842903e-01 -7.885109e-01
    outer loop
      vertex  -3.506209e+01  2.582377e+01  7.717403e+01
      vertex  -3.030338e+01  2.878583e+01  7.670541e+01
      vertex  -3.331681e+01  3.233551e+00  6.246040e+01
    endloop
  endfacet
  facet normal  4.748527e-01 -8.064231e-01  3.524156e-01
    outer loop
      vertex  -3.277151e+01 -2.745021e+01  5.878251e+01
      vertex  -2.943744e+01 -3.149547e+01  4.503346e+01
      vertex  -2.356743e+01 -1.923569e+01  6.517778e+01
    endloop
  endfacet
  facet normal  1.632369e-01 -9.608117e-01  2.240415e-01
    outer loop
      vertex  -2.588546e+01 -2.680300e+01  2.994897e+01
      vertex  -8.073259e+00 -2.441493e+01  2.721232e+01
      vertex  -9.661170e+00 -2.113292e+01  4.244432e+01
    endloop
  endfacet
  facet normal  5.257380e-01  5.554068e-01  6.443003e-01
    outer loop
      vertex   1.499836e+01  9.169906e+00  4.497227e+01
      vertex   2.470569e+01 -4.624816e+00  4.894273e+01
      vertex   2.803950e+01  6.414086e+00  3.670652e+01
    endloop
  endfacet
  facet normal  8.212373e-02  8.239461e-01 -5.606856e-01
    outer loop
      vertex  -2.471272e+01  1.002181e+01  2.170429e+01
      vertex  -9.630200e+00  1.270360e+01  2.785441e+01
      vertex  -1.960308e+01  5.969425e+00  1.649759e+01
    endloop
  endfacet
  facet normal  3.575546e-01 -1.500472e-01 -9.217595e-01
    outer loop
      vertex   2.930554e+01 -2.510159e+00  2.217418e-01
      vertex   3.975219e+01 -1.206259e+01  5.829020e+00
      vertex   2.370860e+01 -1.492181e+01  7.107558e-02
    endloop
  endfacet
  facet normal -2.373934e-01  2.985902e-01  9.243853e-01
    outer loop
      vertex  -6.671077e+00 -6.133933e+00  4.995050e+01
      vertex   1.248666e+01 -1.134105e+00  5.325542e+01
      vertex  -7.711679e+00  5.440694e+00  4.594449e+01
    endloop
  endfacet
  facet normal  8.521990e-02 -1.180641e-01  9.893424e-01
    outer loop
      vertex  -2.356743e+01 -1.923569e+01  6.517778e+01
      vertex  -2.396455e+01 -6.166103e+00  6.677166e+01
      vertex  -3.329163e+01 -1.642740e+01  6.635053e+01
    endloop
  endfacet
  facet normal  3.405620e-01  3.347133e-01  8.786265e-01
    outer loop
      vertex  -7.711679e+00  5.440694e+00  4.594449e+01
      vertex  -1.787969e+01  1.267840e+00  5.147533e+01
      vertex  -6.671077e+00 -6.133933e+00  4.995050e+01
    endloop
  endfacet
  facet normal  3.204942e-02 -6.354082e-01  7.715110e-01
    outer loop
      vertex  -1.456284e+01 -1.087747e+01  5.109422e+01
      vertex  -2.360432e+01 -2.139136e+01  4.281068e+01
      vertex  -9.661170e+00 -2.113292e+01  4.244432e+01
    endloop
  endfacet
  facet normal  4.934612e-02  9.641798e-01  2.606192e-01
    outer loop
      vertex   1.499836e+01  9.169906e+00  4.497227e+01
      vertex   1.601109e+01  1.183185e+01  3.493247e+01
      vertex  -3.188554e+00  1.307631e+01  3.396378e+01
    endloop
  endfacet
  facet normal -6.944914e-01  6.608857e-01  2.844498e-01
    outer loop
      vertex  -4.017471e+01 -5.170662e+00  5.759253e+01
      vertex  -4.147350e+01 -9.188184e+00  6.375573e+01
      vertex  -3.277030e+01 -7.828739e-01  6.547606e+01
    endloop
  endfacet
endsolid vcg
